HIERARCHY
ROOT hip
{
  OFFSET 0 0 0
  CHANNELS 6 Xposition Yposition Zposition Zrotation Yrotation Xrotation
  JOINT abdomen
  {
    OFFSET 0 20.6881 -0.73152
    CHANNELS 3 Zrotation Xrotation Yrotation
    JOINT chest
    {
      OFFSET 0 11.7043 -0.48768
      CHANNELS 3 Zrotation Xrotation Yrotation
      JOINT neck
      {
        OFFSET 0 22.1894 -2.19456
        CHANNELS 3 Zrotation Xrotation Yrotation
        JOINT head
        {
          OFFSET -0.24384 7.07133 1.2192
          CHANNELS 3 Zrotation Xrotation Yrotation
          JOINT leftEye
          {
            OFFSET 4.14528 8.04674 8.04672
            CHANNELS 3 Zrotation Xrotation Yrotation
            End Site
            {
              OFFSET 1 0 0
            }
          }
          JOINT rightEye
          {
            OFFSET -3.6576 8.04674 8.04672
            CHANNELS 3 Zrotation Xrotation Yrotation
            End Site
            {
              OFFSET 1 0 0
            }
          }
        }
      }
      JOINT rCollar
      {
        OFFSET -2.68224 19.2634 -4.8768
        CHANNELS 3 Zrotation Xrotation Yrotation
        JOINT rShldr
        {
          OFFSET -8.77824 -1.95073 1.46304
          CHANNELS 3 Zrotation Xrotation Yrotation
          JOINT rForeArm
          {
            OFFSET -28.1742 -1.7115 0.48768
            CHANNELS 3 Zrotation Xrotation Yrotation
            JOINT rHand
            {
              OFFSET -22.5879 0.773209 7.07136
              CHANNELS 3 Zrotation Xrotation Yrotation
              JOINT rThumb1
              {
                OFFSET -1.2192 -0.487915 3.41376
                CHANNELS 3 Zrotation Xrotation Yrotation
                JOINT rThumb2
                {
                  OFFSET -3.37035 -0.52449 3.41376
                  CHANNELS 3 Zrotation Xrotation Yrotation
                  End Site
                  {
                    OFFSET -1.78271 -1.18214 1.43049
                  }
                }
              }
              JOINT rIndex1
              {
                OFFSET -7.75947 0.938293 5.60832
                CHANNELS 3 Zrotation Xrotation Yrotation
                JOINT rIndex2
                {
                  OFFSET -2.54057 -0.884171 1.56538
                  CHANNELS 3 Zrotation Xrotation Yrotation
                  End Site
                  {
                    OFFSET -1.62519 -0.234802 1.16502
                  }
                }
              }
              JOINT rMid1
              {
                OFFSET -8.24714 1.18213 3.41376
                CHANNELS 3 Zrotation Xrotation Yrotation
                JOINT rMid2
                {
                  OFFSET -3.10165 -0.590103 1.0647
                  CHANNELS 3 Zrotation Xrotation Yrotation
                  End Site
                  {
                    OFFSET -2.48547 -0.328903 0.83742
                  }
                }
              }
              JOINT rRing1
              {
                OFFSET -8.82822 0.546677 1.51678
                CHANNELS 3 Zrotation Xrotation Yrotation
                JOINT rRing2
                {
                  OFFSET -2.60934 -0.819778 -0.0198488
                  CHANNELS 3 Zrotation Xrotation Yrotation
                  End Site
                  {
                    OFFSET -2.33842 -0.294052 0.168128
                  }
                }
              }
              JOINT rPinky1
              {
                OFFSET -8.27202 -0.0477905 -0.4584
                CHANNELS 3 Zrotation Xrotation Yrotation
                JOINT rPinky2
                {
                  OFFSET -1.82734 -0.647385 -0.700984
                  CHANNELS 3 Zrotation Xrotation Yrotation
                  End Site
                  {
                    OFFSET -1.69225 -0.51767 -0.607171
                  }
                }
              }
            }
          }
        }
      }
      JOINT lCollar
      {
        OFFSET 2.68224 19.2634 -4.8768
        CHANNELS 3 Zrotation Xrotation Yrotation
        JOINT lShldr
        {
          OFFSET 8.77824 -1.95073 1.46304
          CHANNELS 3 Zrotation Xrotation Yrotation
          JOINT lForeArm
          {
            OFFSET 28.1742 -1.7115 0.48768
            CHANNELS 3 Zrotation Xrotation Yrotation
            JOINT lHand
            {
              OFFSET 22.5879 0.773209 7.07136
              CHANNELS 3 Zrotation Xrotation Yrotation
              JOINT lThumb1
              {
                OFFSET 1.2192 -0.487915 3.41376
                CHANNELS 3 Zrotation Xrotation Yrotation
                JOINT lThumb2
                {
                  OFFSET 3.37035 -0.52449 3.41376
                  CHANNELS 3 Zrotation Xrotation Yrotation
                  End Site
                  {
                    OFFSET 1.78271 -1.18214 1.43049
                  }
                }
              }
              JOINT lIndex1
              {
                OFFSET 7.75947 0.938293 5.60832
                CHANNELS 3 Zrotation Xrotation Yrotation
                JOINT lIndex2
                {
                  OFFSET 2.54057 -0.884171 1.56538
                  CHANNELS 3 Zrotation Xrotation Yrotation
                  End Site
                  {
                    OFFSET 1.62519 -0.234802 1.16502
                  }
                }
              }
              JOINT lMid1
              {
                OFFSET 8.24714 1.18213 3.41376
                CHANNELS 3 Zrotation Xrotation Yrotation
                JOINT lMid2
                {
                  OFFSET 3.10165 -0.590103 1.0647
                  CHANNELS 3 Zrotation Xrotation Yrotation
                  End Site
                  {
                    OFFSET 2.48547 -0.328903 0.83742
                  }
                }
              }
              JOINT lRing1
              {
                OFFSET 8.82822 0.546677 1.51678
                CHANNELS 3 Zrotation Xrotation Yrotation
                JOINT lRing2
                {
                  OFFSET 2.60934 -0.819778 -0.0198488
                  CHANNELS 3 Zrotation Xrotation Yrotation
                  End Site
                  {
                    OFFSET 2.33842 -0.294052 0.168128
                  }
                }
              }
              JOINT lPinky1
              {
                OFFSET 8.27202 -0.0477905 -0.4584
                CHANNELS 3 Zrotation Xrotation Yrotation
                JOINT lPinky2
                {
                  OFFSET 1.82734 -0.647385 -0.700984
                  CHANNELS 3 Zrotation Xrotation Yrotation
                  End Site
                  {
                    OFFSET 1.69225 -0.51767 -0.607171
                  }
                }
              }
            }
          }
        }
      }
    }
  }
  JOINT rButtock
  {
    OFFSET -8.77824 4.35084 1.2192
    CHANNELS 3 Zrotation Xrotation Yrotation
    JOINT rThigh
    {
      OFFSET 0 -1.70687 -2.19456
      CHANNELS 3 Zrotation Xrotation Yrotation
      JOINT rShin
      {
        OFFSET 0 -36.8199 0.73152
        CHANNELS 3 Zrotation Xrotation Yrotation
        JOINT rFoot
        {
          OFFSET 0.73152 -45.1104 -5.12064
          CHANNELS 3 Zrotation Xrotation Yrotation
          End Site
          {
            OFFSET -1.1221 -3.69964 12.103
          }
        }
      }
    }
  }
  JOINT lButtock
  {
    OFFSET 8.77824 4.35084 1.2192
    CHANNELS 3 Zrotation Xrotation Yrotation
    JOINT lThigh
    {
      OFFSET 0 -1.70687 -2.19456
      CHANNELS 3 Zrotation Xrotation Yrotation
      JOINT lShin
      {
        OFFSET 0 -36.8199 0.73152
        CHANNELS 3 Zrotation Xrotation Yrotation
        JOINT lFoot
        {
          OFFSET -0.73152 -45.1104 -5.12064
          CHANNELS 3 Zrotation Xrotation Yrotation
          End Site
          {
            OFFSET 1.1221 -3.69964 12.103
          }
        }
      }
    }
  }
}
MOTION
Frames:	4
Frame Time:	0.03333
-0.199 53.6951 30.0931 -14.508364 -34.438788 14.644328 7.053283 8.945045 -19.518975 4.139749 -6.340568 25.933014 -9.782605 20.424724 -65.927189 36.671603 3.393571 89.165486 0.00372 -0.0 -0.003259 -0.002233 0.0 -0.001815 -155.893924 -6.137496 162.386949 -105.207159 33.226865 63.465644 -155.941637 56.720108 -88.211798 -12.065275 -50.831777 -13.09316 -0.470681 0.463724 0.073246 -130.520477 -27.759854 115.237261 -28.144896 31.122481 20.701784 49.497622 -48.797994 10.253766 -179.497915 -57.203911 142.382109 -6.521787 23.95135 5.59794 -145.113392 3.479757 179.778799 -153.735754 -18.065122 -176.627466 4.530663 13.147142 4.095584 20.797967 62.666871 9.425632 -4.202639 -53.464512 10.590982 119.883307 -11.674606 -134.501566 153.150742 -22.435479 170.920127 4.165825 46.699373 -19.512689 39.3637 29.608159 -16.349281 122.843078 -22.437183 -94.67003 -16.913386 -30.395942 5.894854 21.744006 38.322875 -17.736986 171.998562 -41.427559 -145.138508 157.578391 11.594156 -140.454844 0.125737 -5.518444 1.739931 156.090812 -29.556548 -175.351831 -0.459155 1.210707 -0.423473 128.623628 -29.370999 126.946535 -0.000555 -0.000525 -0.000645 -12.877712 4.671762 -37.040327 -32.10589 34.886398 -50.474677 -98.097655 -75.513559 -8.959271 -179.997587 75.750166 -0.001664 -147.181634 -4.022148 -98.233344 -84.840787 0.239969 -130.913384 -62.192091 -26.74325 -173.979781
-0.1293 53.6511 30.1745 -14.43242 -34.515818 14.551227 4.706161 4.811797 142.809256 -5.135523 0.092892 -136.524588 -5.416869 30.611104 -133.929954 24.161047 38.482116 150.735189 -0.000371 -0.0 0.00031 -0.000371 -0.0 0.00031 3.672353 -61.006897 -12.694781 112.672409 34.253729 -116.018339 -178.613884 8.416929 34.914464 -146.312695 29.513214 128.770608 -4.722487 4.590008 0.910274 -149.496338 -57.896818 116.759889 -124.532818 22.144905 104.971864 -166.348002 -17.043314 117.6285 -161.465393 -9.134135 143.602762 -115.92543 58.289914 106.125949 -0.09077 -4.519108 -1.423363 -156.198142 -35.319391 176.050786 -20.232631 -33.467437 -19.402634 -9.946303 -26.617824 -11.995995 156.661394 -11.840628 -163.52933 -74.106701 35.687879 56.622238 156.654894 21.228805 -131.989413 -22.423916 -29.989548 -33.546957 166.644681 -4.318067 -89.77182 121.396261 10.751962 -57.064887 151.317186 -17.089368 -121.121931 7.039144 30.63668 0.544452 157.076196 3.93075 -141.311464 171.245794 -28.571714 -143.804515 0.022039 -1.717573 0.542039 -8.534747 19.957175 -2.814005 -3.502373 9.922455 -3.183044 -27.817884 74.858685 -6.498783 179.998713 75.750512 0.000795 129.51533 73.422971 -55.662816 -52.165625 -3.557247 -88.03801 -130.919377 34.380555 -141.038675 -179.983153 75.748794 -0.013845 -147.268274 -3.620603 -80.203621 -85.223781 16.6448 -117.50228 -136.830297 3.650363 146.381725
-0.043800000000000006 53.6227 30.250300000000003 -14.264463 -34.674617 14.389111 3.721282 5.806466 113.783856 -5.709428 -2.762548 -107.474927 -4.757068 13.769451 -19.302881 21.406147 -19.429651 46.274554 -0.000647 0.0 -0.005918 -3.1e-05 0.0 -0.000283 -154.294305 3.714551 160.2272 105.931346 -20.067622 120.394898 163.20836 33.03985 43.342264 -131.332364 42.997384 113.269586 -163.849283 -1.526697 89.482678 24.548224 -59.246436 23.918366 -141.735587 -0.183991 116.784009 -51.403525 55.193229 34.850575 7.820379 -24.538952 -2.998177 -14.583885 37.951284 11.553613 -145.055167 -3.535167 -178.016054 -152.444512 -22.877207 -175.765386 -95.01357 -48.381499 -93.286835 45.346988 81.01222 -7.727612 158.147739 -64.244836 -174.896662 123.45894 66.775516 166.922362 17.71547 -72.977458 9.179538 41.985858 80.374202 -47.804837 161.210552 1.081215 -89.08741 150.250399 0.068318 -74.997536 163.612448 -39.054349 -122.565882 99.508277 53.163401 -81.694649 -7.570159 -23.745049 2.951792 161.557063 0.657254 -142.678387 14.033987 55.764766 -27.062106 159.311408 -3.445445 -174.451633 -13.385831 45.926056 -11.012904 87.766389 -53.271849 86.450572 179.992894 75.750123 0.007243 125.457241 71.211666 173.926619 31.031001 -30.577506 -70.401315 -170.551321 1.430212 88.287864 -179.98928 75.748649 -0.010717 -147.347957 -3.371254 -76.683716 -85.06334 20.390474 -120.772276 -99.489496 -14.043787 161.029465
0.0492 53.6025 30.312099999999997 -14.075666 -34.867031 14.197461 3.319278 6.404163 100.57273 -5.47877 -4.111954 -94.21347 6.312582 13.879056 42.796981 -17.039243 -19.780981 -22.648701 -0.001032 0.0 -0.001429 -0.00077 0.0 -0.0023 -132.030745 53.21516 135.948326 93.646213 -16.031003 67.763046 -52.367331 -32.78161 89.548122 -159.299703 -84.040658 -175.952739 48.867114 -40.149969 11.641343 -134.870419 5.976663 111.314648 -20.6853 25.459549 14.586225 27.124281 -26.527848 -0.518423 -173.432855 -45.057377 144.837133 -165.172509 -10.08419 143.485602 -145.123274 1.868376 -179.713592 -140.625988 -58.439248 -162.593894 -6.104454 -13.752548 -5.736706 -41.148572 -50.392989 -41.684262 156.266678 -8.800602 -162.927338 1.536193 -24.612059 56.047145 -11.392389 -66.49378 39.318987 -69.885071 -60.191682 -78.308139 2.299464 2.255872 -0.398039 -109.87948 -82.377849 -37.818298 -19.907141 -35.61779 5.980628 -5.940606 13.360959 -0.860065 118.735898 53.566208 -108.824964 7.04772 25.771572 -6.169289 -0.004602 1.979434 -0.62179 -11.001092 -15.047796 1.857091 168.462453 80.552636 147.809758 10.379359 -23.733484 11.49386 179.957473 75.749513 0.034208 122.368365 72.505732 61.340669 24.149663 41.783381 83.616046 -139.601077 -19.542608 166.314468 -0.006433 0.000924 -0.003536 75.153636 -56.255317 -39.682182 -77.38295 -8.472102 152.110489 -138.950108 1.533359 50.479717
